<svg width="50" height="48" fill="none" xmlns="http://www.w3.org/2000/svg"><path opacity=".5" d="M39.723 29.413L30.29 24l9.432-5.09L43.208 10l-11.493 7-11.493 7 11.493 7 11.493 7-3.485-8.587z" fill="url(#paint0_linear)"/><path opacity=".5" d="M47.895 24l-7.462 2.977L35.223 24l5.21-2.978L47.895 24z" fill="url(#paint1_linear)"/><g filter="url(#filter0_f)"><path fill-rule="evenodd" clip-rule="evenodd" d="M20.29 24l9.433 5.413L33.208 38l-11.493-7-11.493-7 11.493-7 11.493-7-3.485 8.91L20.29 24zm11.47 2.977L39.223 24l-7.461-2.978L26.55 24l5.21 2.977z" fill="#9794C6"/></g><g filter="url(#filter1_d)"><path fill-rule="evenodd" clip-rule="evenodd" d="M20.29 24l9.433 5.413L33.208 38l-11.493-7-11.493-7 11.493-7 11.493-7-3.485 8.91L20.29 24zm11.47 2.977L39.223 24l-7.461-2.978L26.55 24l5.21 2.977z" fill="url(#paint2_linear)"/></g><defs><linearGradient id="paint0_linear" x1="20.222" y1="24" x2="43.208" y2="24" gradientUnits="userSpaceOnUse"><stop stop-color="#9794C6"/><stop offset="1" stop-color="#9794C6" stop-opacity="0"/></linearGradient><linearGradient id="paint1_linear" x1="35.222" y1="24" x2="47.895" y2="24" gradientUnits="userSpaceOnUse"><stop stop-color="#9794C6"/><stop offset="1" stop-color="#9794C6" stop-opacity="0"/></linearGradient><linearGradient id="paint2_linear" x1="10.222" y1="24" x2="39.222" y2="24" gradientUnits="userSpaceOnUse"><stop stop-color="#F5EDFF"/><stop offset="1" stop-color="#CABDDB"/></linearGradient><filter id="filter0_f" x=".222" y="0" width="49" height="48" filterUnits="userSpaceOnUse" color-interpolation-filters="sRGB"><feFlood flood-opacity="0" result="BackgroundImageFix"/><feBlend in="SourceGraphic" in2="BackgroundImageFix" result="shape"/><feGaussianBlur stdDeviation="5" result="effect1_foregroundBlur"/></filter><filter id="filter1_d" x="6.222" y="7" width="37" height="36" filterUnits="userSpaceOnUse" color-interpolation-filters="sRGB"><feFlood flood-opacity="0" result="BackgroundImageFix"/><feColorMatrix in="SourceAlpha" values="0 0 0 0 0 0 0 0 0 0 0 0 0 0 0 0 0 0 127 0" result="hardAlpha"/><feOffset dy="1"/><feGaussianBlur stdDeviation="2"/><feColorMatrix values="0 0 0 0 0 0 0 0 0 0 0 0 0 0 0 0 0 0 0.5 0"/><feBlend in2="BackgroundImageFix" result="effect1_dropShadow"/><feBlend in="SourceGraphic" in2="effect1_dropShadow" result="shape"/></filter></defs></svg>